<svg width="80" height="80" viewBox="0 0 80 80" fill="none" xmlns="http://www.w3.org/2000/svg">
<path d="M38.875 51.2509L42.625 55.0009C42.9943 55.3703 43.4328 55.6633 43.9154 55.8632C44.398 56.063 44.9152 56.1659 45.4375 56.1659C45.9598 56.1659 46.477 56.063 46.9596 55.8632C47.4422 55.6633 47.8807 55.3703 48.25 55.0009C48.6193 54.6316 48.9123 54.1931 49.1122 53.7106C49.3121 53.228 49.415 52.7108 49.415 52.1884C49.415 51.6661 49.3121 51.1489 49.1122 50.6663C48.9123 50.1838 48.6193 49.7453 48.25 49.3759M44.5 45.6259L49.1875 50.3134C49.9334 51.0594 50.9451 51.4784 52 51.4784C53.0549 51.4784 54.0666 51.0594 54.8125 50.3134C55.5584 49.5675 55.9775 48.5558 55.9775 47.5009C55.9775 46.4461 55.5584 45.4344 54.8125 44.6884L47.5375 37.4134C46.4828 36.3601 45.0531 35.7684 43.5625 35.7684C42.0719 35.7684 40.6422 36.3601 39.5875 37.4134L37.9375 39.0634C37.1916 39.8094 36.1799 40.2284 35.125 40.2284C34.0701 40.2284 33.0584 39.8094 32.3125 39.0634C31.5666 38.3175 31.1475 37.3058 31.1475 36.2509C31.1475 35.1961 31.5666 34.1844 32.3125 33.4384L37.5813 28.1697C39.2917 26.4637 41.5223 25.377 43.92 25.0815C46.3176 24.7861 48.7453 25.2988 50.8188 26.5384L51.7 27.0634C52.4984 27.5453 53.4476 27.7124 54.3625 27.5322L57.625 26.8759M57.625 25.0009L59.5 45.6259H55.75M23.875 25.0009L22 45.6259L34.1875 57.8134C34.9334 58.5594 35.9451 58.9784 37 58.9784C38.0549 58.9784 39.0666 58.5594 39.8125 57.8134C40.5584 57.0675 40.9775 56.0558 40.9775 55.0009C40.9775 53.9461 40.5584 52.9344 39.8125 52.1884M23.875 26.8759H38.875" stroke="black" stroke-width="4" stroke-linecap="round" stroke-linejoin="round"/>
<rect x="2" y="2" width="76" height="76" rx="38" stroke="black" stroke-width="4"/>
</svg>
