<svg width="80" height="80" viewBox="0 0 80 80" fill="none" xmlns="http://www.w3.org/2000/svg">
<path d="M39.75 47.375V56.75M47.25 43.625V56.75M54.75 36.125V56.75M58.5 23L42.2888 39.2112C42.2017 39.2986 42.0982 39.3678 41.9843 39.4151C41.8704 39.4623 41.7483 39.4867 41.625 39.4867C41.5017 39.4867 41.3796 39.4623 41.2657 39.4151C41.1518 39.3678 41.0483 39.2986 40.9612 39.2112L34.7888 33.0388C34.6129 32.863 34.3745 32.7643 34.1259 32.7643C33.8773 32.7643 33.6389 32.863 33.4631 33.0388L21 45.5M24.75 51.125V56.75M32.25 43.625V56.75" stroke="black" stroke-width="4" stroke-linecap="round" stroke-linejoin="round"/>
<rect x="2" y="2" width="76" height="76" rx="38" stroke="black" stroke-width="4"/>
</svg>
