<svg width="80" height="80" viewBox="0 0 80 80" fill="none" xmlns="http://www.w3.org/2000/svg">
<path d="M47.25 56.75V53C47.25 51.0109 46.4598 49.1032 45.0533 47.6967C43.6468 46.2902 41.7391 45.5 39.75 45.5H28.5C26.5109 45.5 24.6032 46.2902 23.1967 47.6967C21.7902 49.1032 21 51.0109 21 53V56.75M47.25 23.24C48.8583 23.6569 50.2826 24.5961 51.2994 25.9101C52.3162 27.2241 52.8679 28.8385 52.8679 30.5C52.8679 32.1615 52.3162 33.7759 51.2994 35.0899C50.2826 36.4039 48.8583 37.3431 47.25 37.76M58.5 56.75V53C58.4988 51.3382 57.9457 49.7239 56.9276 48.4106C55.9095 47.0972 54.484 46.1592 52.875 45.7437M41.625 30.5C41.625 34.6421 38.2671 38 34.125 38C29.9829 38 26.625 34.6421 26.625 30.5C26.625 26.3579 29.9829 23 34.125 23C38.2671 23 41.625 26.3579 41.625 30.5Z" stroke="black" stroke-width="4" stroke-linecap="round" stroke-linejoin="round"/>
<rect x="2" y="2" width="76" height="76" rx="38" stroke="black" stroke-width="4"/>
</svg>
