<svg width="80" height="80" viewBox="0 0 80 80" fill="none" xmlns="http://www.w3.org/2000/svg">
<path d="M39.75 41.75H39.7688M47.25 30.5V26.75C47.25 25.7554 46.8549 24.8016 46.1516 24.0983C45.4484 23.3951 44.4946 23 43.5 23H36C35.0054 23 34.0516 23.3951 33.3484 24.0983C32.6451 24.8016 32.25 25.7554 32.25 26.75V30.5M58.5 43.625C52.9365 47.2981 46.4167 49.2562 39.75 49.2562C33.0833 49.2562 26.5635 47.2981 21 43.625M24.75 30.5H54.75C56.8211 30.5 58.5 32.1789 58.5 34.25V53C58.5 55.0711 56.8211 56.75 54.75 56.75H24.75C22.6789 56.75 21 55.0711 21 53V34.25C21 32.1789 22.6789 30.5 24.75 30.5Z" stroke="black" stroke-width="4" stroke-linecap="round" stroke-linejoin="round"/>
<rect x="2" y="2" width="76" height="76" rx="38" stroke="black" stroke-width="4"/>
</svg>
