<svg width="21" height="20" viewBox="0 0 21 20" fill="none" xmlns="http://www.w3.org/2000/svg">
<path d="M10.0259 0.793779C10.0698 0.705575 10.1375 0.631328 10.2214 0.579418C10.3053 0.527507 10.4021 0.5 10.5009 0.5C10.5997 0.5 10.6965 0.527507 10.7804 0.579418C10.8643 0.631328 10.932 0.705575 10.9759 0.793779L13.2856 5.4551C13.4378 5.7619 13.6624 6.02734 13.9402 6.22862C14.218 6.4299 14.5407 6.56102 14.8805 6.61072L20.046 7.36386C20.1439 7.37799 20.2359 7.41912 20.3115 7.48261C20.3871 7.54609 20.4434 7.6294 20.474 7.7231C20.5046 7.81681 20.5083 7.91717 20.4846 8.01283C20.4609 8.1085 20.4108 8.19566 20.34 8.26444L16.6043 11.8887C16.358 12.1279 16.1737 12.4232 16.0672 12.7491C15.9608 13.075 15.9355 13.4218 15.9934 13.7596L16.8753 18.8802C16.8926 18.9776 16.882 19.078 16.8448 19.1698C16.8076 19.2615 16.7453 19.341 16.6649 19.3992C16.5845 19.4574 16.4893 19.4919 16.3902 19.4987C16.2911 19.5056 16.1921 19.4846 16.1044 19.4381L11.4868 17.0192C11.1826 16.8601 10.844 16.7769 10.5004 16.7769C10.1567 16.7769 9.81824 16.8601 9.51399 17.0192L4.8974 19.4381C4.80974 19.4843 4.71082 19.5051 4.61188 19.4981C4.51294 19.4911 4.41796 19.4566 4.33775 19.3984C4.25753 19.3403 4.1953 19.2609 4.15813 19.1693C4.12095 19.0777 4.11033 18.9775 4.12747 18.8802L5.00839 13.7606C5.06658 13.4226 5.04137 13.0756 4.93494 12.7495C4.8285 12.4234 4.64403 12.1279 4.39745 11.8887L0.661785 8.26544C0.590385 8.19673 0.539789 8.10943 0.515761 8.01347C0.491732 7.91751 0.495237 7.81676 0.525876 7.72269C0.556515 7.62862 0.613057 7.54501 0.689059 7.4814C0.765062 7.41778 0.857471 7.37671 0.955759 7.36286L6.12029 6.61072C6.46052 6.5614 6.78362 6.43046 7.06179 6.22915C7.33996 6.02784 7.56487 5.7622 7.71715 5.4551L10.0259 0.793779Z" stroke="#011F26" stroke-linecap="round" stroke-linejoin="round"/>
</svg>
