<svg width="24" height="24" viewBox="0 0 24 24" fill="none" xmlns="http://www.w3.org/2000/svg">
<path d="M24 20.6667C24 22.508 22.508 24 20.6667 24H3.33333C1.49267 24 0 22.508 0 20.6667V3.33333C0 1.492 1.49267 0 3.33333 0H20.6667C22.508 0 24 1.492 24 3.33333V20.6667Z" fill="#011F26"/>
<path d="M19.958 8.02733C19.9887 7.92667 20.0033 7.83333 19.9993 7.75C19.9893 7.50867 19.8233 7.33333 19.4327 7.33333H17.6873C17.2467 7.33333 17.0433 7.6 16.9247 7.86733C16.9247 7.86733 15.8367 10.1067 14.5827 11.5833C14.176 12.0107 13.9693 12 13.7493 12C13.6313 12 13.3333 11.8573 13.3333 11.466V8.00933C13.3333 7.54667 13.218 7.33333 12.8453 7.33333H9.746C9.47467 7.33333 9.33333 7.54667 9.33333 7.76067C9.33333 8.20533 9.932 8.312 10 9.558V11.9733C10 12.56 9.898 12.6667 9.678 12.6667C9.08467 12.6667 7.91667 10.6667 7.13467 8.04533C6.96533 7.52933 6.796 7.33333 6.35533 7.33333H4.59333C4.08467 7.33333 4 7.58267 4 7.84933C4 8.33 4.4 10.9287 6.58333 13.9167C8.16667 16.0833 10.2527 17.3333 12.0993 17.3333C13.218 17.3333 13.3327 17.0487 13.3327 16.604V14.6227C13.3333 14.0887 13.4553 14 13.8113 14C14.0653 14 14.5833 14.1667 15.5833 15.3333C16.7367 16.6787 16.946 17.3333 17.6073 17.3333H19.3527C19.758 17.3333 19.9907 17.1633 20 16.8333C20.002 16.7493 19.99 16.6553 19.9627 16.5507C19.8333 16.1667 19.24 15.228 18.5 14.3333C18.09 13.838 17.6853 13.3473 17.4993 13.0807C17.3747 12.9067 17.3273 12.784 17.3333 12.6667C17.3393 12.5433 17.4033 12.426 17.4993 12.262C17.482 12.262 19.738 9.09467 19.958 8.02733Z" fill="#F9FFF5"/>
</svg>
