<svg width="24" height="24" viewBox="0 0 24 24" fill="none" xmlns="http://www.w3.org/2000/svg">
<path d="M24 20.6667C24 22.508 22.508 24 20.6667 24H3.33333C1.49267 24 0 22.508 0 20.6667V3.33333C0 1.492 1.49267 0 3.33333 0H20.6667C22.508 0 24 1.492 24 3.33333V20.6667Z" fill="#011F26"/>
<path d="M18.2263 7.53354C18.0988 8.86354 17.0643 15.613 16.8438 16.29C16.6553 16.8685 16.4563 17.3665 16.0778 17.3665C15.6993 17.3665 15.2863 17.2345 14.8788 16.9435C14.4713 16.6525 11.7658 14.838 11.3898 14.601C11.0603 14.3935 10.7118 13.875 11.2028 13.3745C11.6073 12.9625 14.6738 9.98604 14.9358 9.72404C15.1978 9.46154 14.9423 9.12604 14.6218 9.38804C14.3013 9.65004 9.83333 12.6395 9.44633 12.88C9.08133 13.107 8.42983 13.244 7.85733 13.086C7.26283 12.922 6.25633 12.617 5.85683 12.4745C5.47283 12.3375 5.33333 12.2055 5.33333 11.9705C5.33333 11.6365 5.80433 11.406 6.30183 11.1945C6.82683 10.9715 15.9113 7.11404 16.6218 6.85804C17.1403 6.67104 17.5868 6.59854 17.8883 6.74354C18.1378 6.86304 18.2648 7.13054 18.2263 7.53354Z" fill="#F9FFF5"/>
</svg>
