<svg width="24" height="24" viewBox="0 0 24 24" fill="none" xmlns="http://www.w3.org/2000/svg">
<path d="M24 20.6667C24 22.5333 22.5333 24 20.6667 24H3.33333C1.46667 24 0 22.5333 0 20.6667V3.33333C0 1.46667 1.46667 0 3.33333 0H20.6667C22.5333 0 24 1.46667 24 3.33333V20.6667Z" fill="#011F26"/>
<path d="M13.9333 16.2667C14.9333 16.0667 15.8667 15.6667 16.6667 15.1333C17.3333 14.7333 17.5333 13.8667 17.1333 13.2C16.7333 12.5333 15.8667 12.3333 15.2 12.7333C13.2667 13.9333 10.7333 13.9333 8.8 12.7333C8.13333 12.3333 7.26667 12.5333 6.86667 13.2C6.46667 13.8667 6.66667 14.7333 7.33333 15.1333C8.2 15.6667 9.13333 16.0667 10.0667 16.2667L7.4 18.9333C6.86667 19.4667 6.86667 20.3333 7.4 20.9333C7.66667 21.2 8 21.3333 8.4 21.3333C8.73333 21.3333 9.13333 21.2 9.4 20.9333L12 18.3333L14.6 20.9333C15.1333 21.4667 16 21.4667 16.6 20.9333C17.1333 20.4 17.1333 19.5333 16.6 18.9333L13.9333 16.2667ZM12 2.66667C9.4 2.66667 7.33333 4.73333 7.33333 7.33333C7.33333 9.93333 9.4 12 12 12C14.6 12 16.6667 9.93333 16.6667 7.33333C16.6667 4.73333 14.6 2.66667 12 2.66667ZM12 9.33333C10.8667 9.33333 10 8.46667 10 7.33333C10 6.2 10.8667 5.33333 12 5.33333C13.1333 5.33333 14 6.2 14 7.33333C14 8.46667 13.1333 9.33333 12 9.33333Z" fill="#F9FFF5"/>
</svg>
