<svg width="54" height="56" viewBox="0 0 54 56" fill="none" xmlns="http://www.w3.org/2000/svg">
<path fill-rule="evenodd" clip-rule="evenodd" d="M0.0324608 0.549791C0.064489 0.425311 0.160574 0.248963 0.256658 0.165977C0.406123 0.0207513 2.98973 0 27.0109 0C51.6086 0 53.6263 0.0103709 53.8078 0.176348C53.9893 0.33195 54 0.943986 54 15.4357C54 29.3361 53.9893 30.5498 53.8185 30.7261C53.4875 31.0788 52.9858 30.9647 52.0356 30.3215C50.7758 29.4709 49.3773 28.361 48.1388 27.2303C42.4378 22.0643 38.5197 15.6535 37.1318 9.23236C36.8649 8.00829 36.6514 7.67634 36.1283 7.67634C35.7119 7.67634 35.1247 8.278 34.4201 9.43982C33.3311 11.2241 32.6479 13.2884 32.4237 15.5187C32.2742 16.8776 32.2635 16.8983 31.26 17.1162C30.4166 17.3029 28.4522 17.9772 27.4913 18.4025C25.6657 19.2012 23.3597 20.7157 21.8971 22.0643C21.886 22.0746 21.8751 22.0847 21.8644 22.0946C21.8457 22.1119 21.8275 22.1287 21.8099 22.145C21.6311 22.3101 21.5027 22.4287 21.408 22.5688C21.167 22.9256 21.1449 23.422 21.0664 25.1824C21.0623 25.2735 21.058 25.3688 21.0536 25.4668C21.0216 26.3174 20.9469 27.1162 20.9042 27.2303C20.8508 27.3651 19.5056 28.1535 17.2209 29.4087C8.09289 34.3983 7.71923 34.6161 7.62315 34.8755C7.47368 35.2904 7.61247 35.5809 8.4025 36.473C11.1356 39.5539 15.0644 41.4004 19.2601 41.5663L20.7761 41.6286L21.3099 40.8506C22.1853 39.585 23.744 37.7904 25.0892 36.4937C27.8116 33.8693 31.1319 31.639 34.5162 30.1556C36.1069 29.4502 36.1923 29.4294 36.4272 29.5954C36.598 29.7199 36.6087 29.8236 36.4912 30.9336C36.3525 32.2925 36.5019 34.4709 36.7581 34.9585C36.8329 35.1037 37.7083 36.0892 38.6798 37.1265L40.4627 39.0249L40.388 41.1203C40.324 42.9045 40.3346 43.2676 40.4734 43.5269C40.6549 43.8692 41.4876 44.9377 42.6513 46.2966C43.0784 46.7946 43.4307 47.2717 43.4307 47.3443C43.4307 47.5933 42.5766 48.7344 42.0642 49.1804C41.3809 49.7614 40.6336 50.1659 39.7688 50.4253C38.7546 50.7365 37.2065 50.6638 36.1069 50.2697C34.719 49.7717 34.4308 49.9066 33.6941 51.3692C33.0536 52.6452 32.8294 53.4024 32.84 54.3257C32.8614 55.3319 32.7226 55.4771 31.687 55.6535C29.2102 56.0684 25.292 56.1203 22.9433 55.7572C20.1782 55.3319 17.5946 54.5331 15.0323 53.3091C12.342 52.0228 10.2388 50.5601 8.05019 48.4647C4.30289 44.8547 1.80469 40.5186 0.683701 35.6639C0.649701 35.5165 0.617501 35.3793 0.587003 35.2493C0.507229 34.9093 0.439095 34.619 0.380824 34.3267C0.0397341 32.6162 0.0365803 30.842 0.0149665 18.6828C0.0137589 18.0034 0.0124937 17.2916 0.0111086 16.5456C-0.0102435 7.87344 0.000432578 0.67427 0.0324608 0.549791ZM26.9041 11.5353C27.0002 11.6079 27.3098 11.9709 27.5874 12.3444C28.3347 13.3402 29.1781 14.2427 30.0856 15.0207C30.5233 15.3942 30.8756 15.7261 30.865 15.7469C30.8543 15.778 30.2991 15.9647 29.6372 16.1514C28.9753 16.3485 27.9824 16.7012 27.4273 16.9398C26.4984 17.334 26.413 17.3548 26.1568 17.2095C25.655 16.9398 25.6017 16.6909 25.6123 14.6265C25.6123 12.4481 25.6977 11.7531 25.986 11.5456C26.2315 11.3797 26.6799 11.3693 26.9041 11.5353ZM35.57 41.4441C35.5803 40.8218 36.062 40.1256 36.5358 40.0376C36.733 40.0021 36.799 40.0196 37.0207 40.2081C37.4602 40.5625 37.5623 41.3858 37.2515 42.0204C36.6738 43.2081 35.5444 42.8129 35.57 41.4441ZM8.56755 5.13485H12.5711V9.02489H16.5746V12.9149H12.5711V16.805H8.56755V12.9149H4.56402V9.02489H8.56755V5.13485Z" fill="#011F26"/>
<path d="M25.2814 23.2054C24.6408 23.4336 24.1284 24.5228 24.2565 25.4045C24.534 27.3444 26.1995 27.6556 26.7333 25.8506C27.0216 24.8859 26.6906 23.7448 25.9967 23.3402C25.6444 23.1224 25.5483 23.112 25.2814 23.2054Z" fill="#011F26"/>
</svg>
