<svg width="31" height="18" viewBox="0 0 31 18" fill="none" xmlns="http://www.w3.org/2000/svg">
<path d="M13.7363 0C14.1242 0 14.4475 0.129496 14.7061 0.388489C14.9648 0.690647 15.0941 1.01439 15.0941 1.35971C15.0941 1.57554 15.051 1.76978 14.9648 1.94245L9.46883 16.0576C9.29641 16.4892 9.01622 16.9209 8.62827 17.3525C8.19722 17.7842 7.6153 18 6.8825 18H1.38656C0.99861 18 0.653767 17.8489 0.352028 17.5468C0.0502892 17.2878 -0.0574741 16.9424 0.0287361 16.5108L2.22711 2.39568C2.31332 1.83453 2.57196 1.29496 3.00301 0.776979C3.39096 0.258993 3.97289 0 4.74878 0H13.7363ZM29.6422 0C30.0301 0 30.3534 0.129496 30.6121 0.388489C30.8707 0.690647 31 1.01439 31 1.35971C31 1.57554 30.9569 1.76978 30.8707 1.94245L25.3747 16.0576C25.2023 16.4892 24.9221 16.9209 24.5342 17.3525C24.1462 17.7842 23.5643 18 22.7884 18H17.2925C16.9045 18 16.5597 17.8489 16.2579 17.5468C15.9562 17.2878 15.8484 16.9424 15.9346 16.5108L18.133 2.39568C18.2192 1.83453 18.4779 1.29496 18.9089 0.776979C19.2969 0.258993 19.9003 0 20.7194 0H29.6422Z" fill="#011F26"/>
</svg>
