<svg width="16" height="12" viewBox="0 0 16 12" fill="none" xmlns="http://www.w3.org/2000/svg">
<path d="M1.04375 6.24859C0.985416 6.08821 0.985416 5.91179 1.04375 5.75141C1.61191 4.34546 2.57633 3.14335 3.81475 2.29746C5.05317 1.45157 6.50981 1 8 1C9.49019 1 10.9468 1.45157 12.1852 2.29746C13.4237 3.14335 14.3881 4.34546 14.9562 5.75141C15.0146 5.91179 15.0146 6.08821 14.9562 6.24859C14.3881 7.65454 13.4237 8.85665 12.1852 9.70254C10.9468 10.5484 9.49019 11 8 11C6.50981 11 5.05317 10.5484 3.81475 9.70254C2.57633 8.85665 1.61191 7.65454 1.04375 6.24859Z" stroke="#011F26" stroke-width="2" stroke-linecap="round" stroke-linejoin="round"/>
<path d="M8 8.14305C9.15974 8.14305 10.0999 7.18357 10.0999 6C10.0999 4.81643 9.15974 3.85695 8 3.85695C6.84026 3.85695 5.90011 4.81643 5.90011 6C5.90011 7.18357 6.84026 8.14305 8 8.14305Z" stroke="#011F26" stroke-width="2" stroke-linecap="round" stroke-linejoin="round"/>
</svg>
